<svg
  width="100%"
  height="100%"
  style="color: white"
  viewBox="14.942 30.564 2679.181 293.221"
  xmlns="http://www.w3.org/2000/svg"
>
  <defs>
    <linearGradient
      id="IconifyId1813088fe1fbc01fb466"
      x1="-.828%"
      x2="57.636%"
      y1="7.652%"
      y2="78.411%"
    >
      <stop offset="0" stop-color="#41D1FF" />
      <stop offset="1" stop-color="#BD34FE" />
    </linearGradient>
    <linearGradient
      id="IconifyId1813088fe1fbc01fb467"
      x1="43.376%"
      x2="50.316%"
      y1="2.242%"
      y2="89.03%"
    >
      <stop offset="0" stop-color="#FFEA83" />
      <stop offset="0.0833" stop-color="#FFDD35" />
      <stop offset="1" stop-color="#FFA800" />
    </linearGradient>
  </defs>
  <path
    fill="url(#IconifyId1813088fe1fbc01fb466)"
    d="M 273.621 79.481 L 153.365 294.519 C 150.882 298.959 144.503 298.985 141.983 294.567 L 19.343 79.501 C 16.597 74.687 20.714 68.855 26.17 69.831 L 146.555 91.348 C 147.323 91.485 148.11 91.484 148.877 91.344 L 266.744 69.861 C 272.182 68.87 276.318 74.657 273.621 79.481 Z"
    transform="matrix(0.9999999999999999, 0, 0, 0.9999999999999999, 0, 0)"
  />
  <path
    fill="url(#IconifyId1813088fe1fbc01fb467)"
    d="M 203.9 41.606 L 114.908 59.044 C 113.446 59.33 112.362 60.57 112.274 62.058 L 106.8 154.514 C 106.671 156.692 108.672 158.382 110.797 157.892 L 135.574 152.174 C 137.892 151.639 139.987 153.681 139.51 156.012 L 132.149 192.059 C 131.654 194.485 133.931 196.559 136.3 195.839 L 151.604 191.19 C 153.976 190.47 156.256 192.55 155.754 194.978 L 144.056 251.599 C 143.324 255.141 148.035 257.072 149.999 254.036 L 151.312 252.008 L 223.828 107.288 C 225.043 104.865 222.948 102.102 220.288 102.616 L 194.783 107.538 C 192.387 108 190.348 105.768 191.024 103.424 L 207.67 45.719 C 208.347 43.369 206.3 41.136 203.901 41.606 L 203.9 41.606 Z"
    transform="matrix(0.9999999999999999, 0, 0, 0.9999999999999999, 0, 0)"
  />
  <path
    d="M 414.65 155.83 L 406.88 135.79 L 409.75 135.79 L 414.96 150.35 Q 415.59 152.1 416.01 153.63 Q 416.48 151.99 417.09 150.35 L 422.51 135.79 L 425.22 135.79 L 417.37 155.83 Z M 425.83 138.62 L 425.83 135.79 L 428.29 135.79 L 428.29 138.62 Z M 425.83 155.83 L 425.83 141.31 L 428.29 141.31 L 428.29 155.83 Z M 437.64 153.63 L 438 155.8 Q 436.96 156.02 436.14 156.02 Q 434.8 156.02 434.06 155.6 Q 433.32 155.17 433.02 154.48 Q 432.72 153.79 432.72 151.58 L 432.72 143.22 L 430.92 143.22 L 430.92 141.31 L 432.72 141.31 L 432.72 137.71 L 435.17 136.24 L 435.17 141.31 L 437.64 141.31 L 437.64 143.22 L 435.17 143.22 L 435.17 151.71 Q 435.17 152.77 435.3 153.07 Q 435.43 153.37 435.72 153.54 Q 436.02 153.72 436.56 153.72 Q 436.97 153.72 437.64 153.63 Z M 448.66 151.15 L 451.21 151.47 Q 450.6 153.7 448.98 154.93 Q 447.35 156.16 444.82 156.16 Q 441.64 156.16 439.77 154.19 Q 437.9 152.23 437.9 148.69 Q 437.9 145.03 439.79 143 Q 441.68 140.98 444.68 140.98 Q 447.6 140.98 449.44 142.96 Q 451.29 144.95 451.29 148.54 Q 451.29 148.76 451.27 149.2 L 440.45 149.2 Q 440.58 151.59 441.8 152.86 Q 443.02 154.13 444.84 154.13 Q 446.19 154.13 447.15 153.42 Q 448.1 152.71 448.66 151.15 Z M 440.58 147.17 L 448.69 147.17 Q 448.53 145.34 447.76 144.43 Q 446.59 143 444.71 143 Q 443.02 143 441.86 144.14 Q 440.71 145.27 440.58 147.17 Z M 462.7 155.83 L 462.7 135.79 L 470.26 135.79 Q 472.26 135.79 473.31 135.98 Q 474.79 136.22 475.79 136.91 Q 476.79 137.6 477.39 138.85 Q 478 140.09 478 141.58 Q 478 144.14 476.38 145.91 Q 474.75 147.68 470.5 147.68 L 465.36 147.68 L 465.36 155.83 Z M 465.36 145.31 L 470.54 145.31 Q 473.11 145.31 474.19 144.36 Q 475.27 143.4 475.27 141.66 Q 475.27 140.41 474.63 139.51 Q 474 138.62 472.96 138.33 Q 472.29 138.15 470.48 138.15 L 465.36 138.15 Z M 479.55 155.83 L 479.55 135.79 L 482.01 135.79 L 482.01 155.83 Z M 495.57 155.83 L 495.57 153.7 Q 493.88 156.16 490.96 156.16 Q 489.68 156.16 488.56 155.66 Q 487.45 155.17 486.91 154.43 Q 486.37 153.68 486.15 152.6 Q 486 151.88 486 150.3 L 486 141.31 L 488.46 141.31 L 488.46 149.36 Q 488.46 151.29 488.61 151.96 Q 488.84 152.93 489.6 153.48 Q 490.35 154.04 491.46 154.04 Q 492.56 154.04 493.53 153.47 Q 494.5 152.9 494.91 151.92 Q 495.31 150.95 495.31 149.09 L 495.31 141.31 L 497.77 141.31 L 497.77 155.83 Z M 500.66 157.03 L 503.06 157.39 Q 503.21 158.49 503.89 159 Q 504.81 159.68 506.39 159.68 Q 508.1 159.68 509.03 159 Q 509.96 158.32 510.29 157.09 Q 510.48 156.33 510.47 153.93 Q 508.85 155.83 506.45 155.83 Q 503.45 155.83 501.81 153.67 Q 500.17 151.51 500.17 148.49 Q 500.17 146.41 500.92 144.65 Q 501.68 142.89 503.1 141.94 Q 504.53 140.98 506.46 140.98 Q 509.03 140.98 510.7 143.06 L 510.7 141.31 L 512.97 141.31 L 512.97 153.86 Q 512.97 157.25 512.28 158.66 Q 511.59 160.08 510.09 160.9 Q 508.59 161.72 506.41 161.72 Q 503.81 161.72 502.21 160.55 Q 500.61 159.38 500.66 157.03 Z M 502.7 148.31 Q 502.7 151.17 503.84 152.48 Q 504.97 153.79 506.68 153.79 Q 508.38 153.79 509.52 152.49 Q 510.67 151.18 510.67 148.39 Q 510.67 145.72 509.49 144.37 Q 508.31 143.02 506.64 143.02 Q 505 143.02 503.85 144.35 Q 502.7 145.68 502.7 148.31 Z M 516.19 138.62 L 516.19 135.79 L 518.65 135.79 L 518.65 138.62 Z M 516.19 155.83 L 516.19 141.31 L 518.65 141.31 L 518.65 155.83 Z M 522.63 155.83 L 522.63 141.31 L 524.84 141.31 L 524.84 143.37 Q 526.44 140.98 529.47 140.98 Q 530.78 140.98 531.88 141.45 Q 532.98 141.92 533.53 142.69 Q 534.07 143.45 534.29 144.51 Q 534.43 145.19 534.43 146.9 L 534.43 155.83 L 531.97 155.83 L 531.97 147 Q 531.97 145.49 531.68 144.75 Q 531.39 144 530.66 143.56 Q 529.93 143.11 528.95 143.11 Q 527.37 143.11 526.23 144.11 Q 525.09 145.11 525.09 147.9 L 525.09 155.83 Z M 551.71 155.83 L 551.71 138.15 L 545.11 138.15 L 545.11 135.79 L 560.99 135.79 L 560.99 138.15 L 554.36 138.15 L 554.36 155.83 Z M 570.87 155.83 L 570.87 153.7 Q 569.18 156.16 566.26 156.16 Q 564.98 156.16 563.86 155.66 Q 562.75 155.17 562.21 154.43 Q 561.67 153.68 561.45 152.6 Q 561.3 151.88 561.3 150.3 L 561.3 141.31 L 563.76 141.31 L 563.76 149.36 Q 563.76 151.29 563.91 151.96 Q 564.14 152.93 564.9 153.48 Q 565.65 154.04 566.76 154.04 Q 567.86 154.04 568.83 153.47 Q 569.8 152.9 570.21 151.92 Q 570.61 150.95 570.61 149.09 L 570.61 141.31 L 573.07 141.31 L 573.07 155.83 Z M 581.79 153.63 L 582.14 155.8 Q 581.11 156.02 580.28 156.02 Q 578.95 156.02 578.21 155.6 Q 577.47 155.17 577.17 154.48 Q 576.87 153.79 576.87 151.58 L 576.87 143.22 L 575.06 143.22 L 575.06 141.31 L 576.87 141.31 L 576.87 137.71 L 579.31 136.24 L 579.31 141.31 L 581.79 141.31 L 581.79 143.22 L 579.31 143.22 L 579.31 151.71 Q 579.31 152.77 579.44 153.07 Q 579.57 153.37 579.87 153.54 Q 580.16 153.72 580.71 153.72 Q 581.12 153.72 581.79 153.63 Z M 584.11 148.57 Q 584.11 144.54 586.35 142.59 Q 588.22 140.98 590.91 140.98 Q 593.91 140.98 595.81 142.94 Q 597.71 144.9 597.71 148.36 Q 597.71 151.17 596.87 152.77 Q 596.03 154.38 594.42 155.27 Q 592.81 156.16 590.91 156.16 Q 587.87 156.16 585.99 154.2 Q 584.11 152.25 584.11 148.57 Z M 586.63 148.57 Q 586.63 151.36 587.85 152.74 Q 589.07 154.13 590.91 154.13 Q 592.75 154.13 593.96 152.74 Q 595.18 151.34 595.18 148.49 Q 595.18 145.79 593.96 144.41 Q 592.73 143.02 590.91 143.02 Q 589.07 143.02 587.85 144.4 Q 586.63 145.78 586.63 148.57 Z M 600.05 155.83 L 600.05 141.31 L 602.27 141.31 L 602.27 143.51 Q 603.12 141.96 603.83 141.47 Q 604.55 140.98 605.41 140.98 Q 606.66 140.98 607.94 141.77 L 607.1 144.06 Q 606.19 143.52 605.29 143.52 Q 604.48 143.52 603.84 144.01 Q 603.2 144.49 602.93 145.36 Q 602.52 146.67 602.52 148.23 L 602.52 155.83 Z M 608.7 138.62 L 608.7 135.79 L 611.16 135.79 L 611.16 138.62 Z M 608.7 155.83 L 608.7 141.31 L 611.16 141.31 L 611.16 155.83 Z M 624.62 154.04 Q 623.25 155.2 621.98 155.68 Q 620.72 156.16 619.27 156.16 Q 616.88 156.16 615.59 154.99 Q 614.31 153.82 614.31 152 Q 614.31 150.93 614.79 150.05 Q 615.28 149.17 616.06 148.64 Q 616.85 148.1 617.83 147.83 Q 618.56 147.64 620.02 147.46 Q 623 147.11 624.41 146.61 Q 624.42 146.11 624.42 145.97 Q 624.42 144.47 623.73 143.85 Q 622.78 143.02 620.92 143.02 Q 619.19 143.02 618.36 143.63 Q 617.53 144.23 617.14 145.78 L 614.73 145.45 Q 615.06 143.91 615.81 142.96 Q 616.56 142.01 617.99 141.49 Q 619.41 140.98 621.28 140.98 Q 623.14 140.98 624.3 141.42 Q 625.46 141.86 626.01 142.52 Q 626.56 143.18 626.78 144.19 Q 626.9 144.82 626.9 146.46 L 626.9 149.74 Q 626.9 153.18 627.06 154.08 Q 627.21 154.99 627.68 155.83 L 625.11 155.83 Q 624.73 155.06 624.62 154.04 Z M 624.41 148.54 Q 623.07 149.09 620.39 149.47 Q 618.87 149.69 618.25 149.96 Q 617.62 150.24 617.27 150.76 Q 616.93 151.29 616.93 151.93 Q 616.93 152.92 617.68 153.57 Q 618.42 154.23 619.86 154.23 Q 621.28 154.23 622.39 153.61 Q 623.5 152.98 624.01 151.9 Q 624.41 151.07 624.41 149.44 Z M 630.15 155.83 L 630.15 135.79 L 632.61 135.79 L 632.61 155.83 Z"
    transform="matrix(9.85232, 0, 0, 9.616368, -3645.645752, -1233.855835)"
    style="fill: currentColor"
  />
</svg>
